#!OML:ASF E:\VariousWalksJay\Project 1\Capture day 1\Session 1\Actor2.ASF
:FULLY-SPECIFIED
:DEGREES
853
root 4.10179 17.5083 5.87743 182.314 -30.3031 -183.237
lowerback 25.4433 -2.02055 5.70961
upperback 14.2475 -4.39232 -4.87644
thorax 1.12288 -2.8173 -7.57543
lowerneck 3.31847 -1.72579 -3.28544
upperneck -14.2381 -1.59647 13.082
head -4.62741 -1.71354 4.72864
rclavicle 1.03368e-014 -5.40694e-014
rhumerus 48.693 -30.4404 4.98581
rradius 65.2514
rwrist -5.87044
rhand -29.1176 -16.1415
rfingers 7.12502
rthumb -2.4653 -46.107
lclavicle 1.03368e-014 -5.40694e-014
lhumerus 37.4618 -24.3273 20.147
lradius 93.654
lwrist 11.8235
lhand 4.36401 -7.94268
lfingers 7.12502
lthumb 29.7632 19.6872
rfemur -33.8409 -6.89517 17.626
rtibia 43.45
rfoot 5.72986 5.44444
rtoes 3.90796
lfemur -73.4807 21.4771 -15.1403
ltibia 121.037
lfoot 21.4084 -6.04772
ltoes 3.81029
854
root 4.00142 17.4038 5.71863 181.498 -29.1869 -182.65
lowerback 25.8375 -1.70049 6.96652
upperback 14.1666 -3.71178 -4.89223
thorax 0.9586 -2.41672 -8.49605
lowerneck 3.52274 -1.93845 -3.33168
upperneck -14.9178 -1.84528 13.1807
head -4.84562 -1.88122 4.80383
rclavicle 5.00937e-014 2.38542e-014
rhumerus 49.6703 -31.6977 9.63055
rradius 56.8173
rwrist -2.80234
rhand -26.5555 -16.3865
rfingers 7.12502
rthumb 0.00918783 -46.3663
lclavicle 5.00937e-014 2.38542e-014
lhumerus 35.3041 -25.928 18.8802
lradius 98.7389
lwrist 11.448
lhand 4.8016 -7.62699
lfingers 7.12502
lthumb 30.1807 19.9274
rfemur -31.4757 -6.40672 18.5281
rtibia 42.0666
rfoot 1.33184 6.06957
rtoes 3.88959
lfemur -78.2832 24.2165 -13.9292
ltibia 124.915
lfoot 22.3638 -8.40658
ltoes 4.7685
855
root 3.90498 17.3273 5.57109 180.732 -27.9161 -181.913
lowerback 26.373 -1.35977 8.21535
upperback 14.0907 -2.99899 -4.85954
thorax 0.783453 -2.00941 -9.37769
lowerneck 3.74887 -2.10515 -3.31984
upperneck -15.7025 -2.02794 13.2683
head -5.10757 -2.02783 4.86962
rclavicle 4.17448e-014 6.36111e-015
rhumerus 51.127 -33.1039 12.8668
rradius 48.6577
rwrist -0.210195
rhand -23.3 -16.5398
rfingers 7.12502
rthumb 3.15339 -46.4962
lclavicle 4.17448e-014 6.36111e-015
lhumerus 33.3475 -26.8915 17.5695
lradius 103.673
lwrist 10.9998
lhand 5.29277 -7.30348
lfingers 7.12502
lthumb 30.6492 20.1643
rfemur -29.5856 -5.71092 19.6137
rtibia 40.8385
rfoot -2.00791 5.76134
rtoes 4.43123
lfemur -83.1289 26.9389 -12.9843
ltibia 127.819
lfoot 23.4092 -10.6488
ltoes 5.66942
856
root 3.81366 17.2896 5.43611 180.07 -26.6338 -181.139
lowerback 27.0467 -1.04503 9.36754
upperback 14.0342 -2.33224 -4.79796
thorax 0.59395 -1.63997 -10.1692
lowerneck 4.03346 -2.22764 -3.21049
upperneck -16.578 -2.14673 13.3032
head -5.41785 -2.1539 4.90678
rclavicle 4.33351e-014 -3.97569e-016
rhumerus 53.3992 -34.9474 13.9689
rradius 41.1691
rwrist 1.74048
rhand -19.9563 -16.6464
rfingers 7.12502
rthumb 6.38205 -46.5302
lclavicle 4.33351e-014 -3.97569e-016
lhumerus 31.5764 -27.1705 16.3107
lradius 108.387
lwrist 10.7904
lhand 5.96583 -6.90827
lfingers 7.12502
lthumb 31.2908 20.4374
rfemur -28.0638 -4.79999 20.6965
rtibia 39.7627
rfoot -4.08917 4.88443
rtoes 5.82414
lfemur -87.7425 29.0187 -12.4288
ltibia 129.613
lfoot 24.4841 -12.3589
ltoes 6.53217
857
root 3.72746 17.2944 5.31404 179.559 -25.4949 -180.449
lowerback 27.9518 -0.796838 10.3353
upperback 14.0678 -1.72754 -5.04005
thorax 0.241871 -1.33122 -10.4863
lowerneck 4.31596 -2.3327 -3.09431
upperneck -17.4173 -2.23753 13.3975
head -5.72056 -2.2718 4.96249
rclavicle 4.77083e-015 1.15295e-014
rhumerus 57.0887 -37.4991 11.9444
rradius 34.721
rwrist 3.20957
rhand -17.0888 -16.9015
rfingers 7.12502
rthumb 9.14969 -46.683
lclavicle 4.77083e-015 1.15295e-014
lhumerus 30.0405 -26.7467 15.2036
lradius 112.783
lwrist 11.0838
lhand 6.87286 -6.41587
lfingers 7.12502
lthumb 32.1547 20.7589
rfemur -26.8322 -3.72968 21.5909
rtibia 38.8466
rfoot -5.04356 3.80901
rtoes 6.51478
lfemur -91.785 29.9178 -12.2639
ltibia 130.257
lfoot 25.4898 -13.1902
ltoes 7.36515
858
root 3.64583 17.3405 5.20367 179.25 -24.6333 -179.965
lowerback 28.7619 -0.579357 11.0062
upperback 14.1078 -1.28687 -4.96989
thorax 0.0845623 -1.11259 -10.8734
lowerneck 4.67329 -2.46092 -2.87317
upperneck -18.3376 -2.35834 13.3835
head -6.06613 -2.40959 4.97487
rclavicle -2.98177e-014 6.75868e-014
rhumerus 63.3994 -40.7721 5.27478
rradius 29.5533
rwrist 4.81997
rhand -15.0668 -17.2053
rfingers 7.12502
rthumb 11.1003 -46.8918
lclavicle -2.98177e-014 6.75868e-014
lhumerus 28.8248 -25.6666 14.3082
lradius 116.74
lwrist 12.0553
lhand 7.94301 -5.81144
lfingers 7.12502
lthumb 33.1728 21.1521
rfemur -25.8809 -2.63917 22.1596
rtibia 38.127
rfoot -5.13936 2.68981
rtoes 6.34163
lfemur -94.9658 29.385 -12.4161
ltibia 129.795
lfoot 26.3301 -12.9612
ltoes 8.19669
859
root 3.56898 17.4243 5.10373 179.166 -24.1298 -179.775
lowerback 29.5564 -0.386323 11.3122
upperback 14.2036 -0.972264 -4.85965
thorax -0.0320525 -0.97735 -10.9856
lowerneck 5.00154 -2.6148 -2.67316
upperneck -19.1392 -2.51621 13.3863
head -6.36839 -2.55747 4.99553
rclavicle 2.36554e-014 -1.70955e-014
rhumerus 74.1859 -43.9022 -7.92443
rradius 25.6755
rwrist 7.27331
rhand -14.1791 -17.027
rfingers 7.12502
rthumb 11.9564 -46.6655
lclavicle 2.36554e-014 -1.70955e-014
lhumerus 28.0211 -24.0171 13.6605
lradius 120.129
lwrist 13.7766
lhand 8.9928 -5.0963
lfingers 7.12502
lthumb 34.1704 21.6495
rfemur -25.2303 -1.70297 22.3333
rtibia 37.6575
rfoot -4.5095 1.6088
rtoes 5.27436
lfemur -97.1151 27.493 -12.8148
ltibia 128.31
lfoot 26.9477 -11.7038
ltoes 9.06783
860
root 3.4965 17.54 5.01253 179.317 -23.9923 -179.945
lowerback 30.3054 -0.177998 11.2099
upperback 14.3484 -0.750447 -4.69597
thorax -0.105535 -0.909425 -10.7937
lowerneck 5.26682 -2.79602 -2.53885
upperneck -19.7753 -2.71782 13.4097
head -6.60349 -2.71064 5.02966
rclavicle 1.55052e-014 -1.78906e-014
rhumerus 88.7416 -44.6212 -26.1284
rradius 22.9968
rwrist 9.57862
rhand -14.4477 -15.8547
rfingers 7.12502
rthumb 11.6974 -45.5081
lclavicle 1.55052e-014 -1.78906e-014
lhumerus 27.724 -21.9287 13.2391
lradius 122.825
lwrist 16.2106
lhand 9.72379 -4.27288
lfingers 7.12502
lthumb 34.8643 22.3148
rfemur -24.909 -1.09019 22.0923
rtibia 37.4969
rfoot -3.26563 0.560087
rtoes 3.76605
lfemur -98.2309 24.5598 -13.4695
ltibia 125.91
lfoot 27.3281 -9.61211
ltoes 9.96557
861
root 3.4282 17.6792 4.92848 179.669 -24.1839 -180.455
lowerback 31.0066 0.0667874 10.7366
upperback 14.5372 -0.590436 -4.45624
thorax -0.136087 -0.892312 -10.303
lowerneck 5.42001 -2.98444 -2.50047
upperneck -20.2298 -2.94495 13.4263
head -6.75711 -2.85273 5.06866
rclavicle 1.05356e-014 -3.04141e-014
rhumerus 99.4283 -43.021 -39.6365
rradius 22.1371
rwrist 7.14857
rhand -15.1372 -14.4193
rfingers 7.12502
rthumb 11.0324 -44.1094
lclavicle 1.05356e-014 -3.04141e-014
lhumerus 27.9724 -19.5288 12.9908
lradius 124.725
lwrist 19.1427
lhand 9.84108 -3.41221
lfingers 7.12502
lthumb 34.9756 23.1495
rfemur -24.9291 -0.904244 21.5188
rtibia 37.6902
rfoot -1.50242 -0.567259
rtoes 2.49894
lfemur -98.4471 21.0314 -14.3988
ltibia 122.717
lfoot 27.5109 -7.032
ltoes 10.7804
